#!OML:ASF F:\VICON\USERDATA\INSTALL\rory3\rory3.ASF
:FULLY-SPECIFIED
:DEGREES
226
root 0.619589 16.2511 -0.0933139 -158.292 -15.0875 183.451
lowerback 5.58269 5.3554 5.77953
upperback -2.56758 7.58185 0.719252
thorax -5.14903 3.52794 -3.16644
lowerneck -11.7384 0.368029 -3.25132
upperneck 44.1678 -6.70804 4.36971
head 19.1755 -4.20846 0.91552
rclavicle 4.53229e-014 -1.51076e-014
rhumerus -101.733 -47.566 77.4005
rradius 15.3904
rwrist 30.448
rhand -1.83195 10.2832
rfingers 7.12502
rthumb 23.8346 -18.2581
lclavicle 4.53229e-014 -1.51076e-014
lhumerus -50.1839 11.5125 -6.56649
lradius 17.1074
lwrist -45.1011
lhand 14.2007 30.4806
lfingers 7.12502
lthumb 39.0987 55.9723
rfemur -21.3468 11.2817 34.0619
rtibia 29.8372
rfoot -34.1816 -26.8518
rtoes 24.648
lfemur -73.7008 0.0910511 -17.7227
ltibia 37.8403
lfoot -19.5392 21.705
ltoes 42.1717
227
root 0.59277 16.2283 -0.202867 -158.616 -14.4481 183.456
lowerback 5.57939 5.41609 5.6275
upperback -2.57176 7.65212 0.722886
thorax -5.16474 3.56789 -3.08599
lowerneck -11.3976 0.482325 -3.27404
upperneck 44.2111 -6.75827 4.62636
head 19.13 -4.23693 1.03365
rclavicle -5.84427e-014 1.74931e-014
rhumerus -100.596 -47.3588 76.7717
rradius 15.1395
rwrist 33.0868
rhand 1.93112 8.5815
rfingers 7.12502
rthumb 27.4387 -19.4401
lclavicle -5.84427e-014 1.74931e-014
lhumerus -49.8806 10.7065 -6.19277
lradius 16.8823
lwrist -46.4256
lhand 15.3403 30.5715
lfingers 7.12502
lthumb 40.1719 55.7455
rfemur -20.3111 11.698 34.1072
rtibia 29.63
rfoot -33.9565 -27.1586
rtoes 25.6699
lfemur -73.8585 0.308391 -18.3965
ltibia 37.7179
lfoot -19.2937 21.9793
ltoes 42.7278
228
root 0.558902 16.2132 -0.318435 -158.737 -13.8218 183.208
lowerback 5.18763 5.42942 5.23743
upperback -2.46571 7.61222 0.770401
thorax -4.88923 3.57621 -2.77418
lowerneck -11.2369 0.604267 -3.41615
upperneck 44.2637 -6.61513 4.67184
head 19.1148 -4.22241 1.10657
rclavicle 2.66371e-014 2.78299e-014
rhumerus -97.8603 -47.5683 74.0534
rradius 14.9024
rwrist 34.879
rhand 6.01442 6.95667
rfingers 7.12502
rthumb 31.3371 -20.38
lclavicle 2.66371e-014 2.78299e-014
lhumerus -49.8719 10.4436 -6.21651
lradius 16.5277
lwrist -48.3831
lhand 16.5606 30.3798
lfingers 7.12502
lthumb 41.3186 55.1941
rfemur -19.5747 11.689 33.8657
rtibia 29.6311
rfoot -33.6098 -27.3444
rtoes 26.2863
lfemur -73.9474 0.375397 -19.3218
ltibia 37.3872
lfoot -18.584 22.6976
ltoes 42.6296
229
root 0.531793 16.2161 -0.43732 -158.826 -13.1345 183.18
lowerback 4.64122 5.49879 4.92014
upperback -2.33936 7.64375 0.861835
thorax -4.49715 3.61941 -2.44336
lowerneck -10.7853 0.598687 -2.48401
upperneck 43.9477 -6.34754 3.6443
head 18.6616 -4.09215 0.5067
rclavicle -1.25632e-013 -3.4191e-014
rhumerus -97.4293 -47.6203 74.6055
rradius 14.5464
rwrist 39.4632
rhand 10.5577 5.60691
rfingers 7.12502
rthumb 35.6551 -20.7936
lclavicle -1.25632e-013 -3.4191e-014
lhumerus -49.7749 10.996 -7.04093
lradius 15.9697
lwrist -51.4533
lhand 17.9728 30.0199
lfingers 7.12502
lthumb 42.6421 54.3911
rfemur -19.0491 11.6594 33.8409
rtibia 29.6886
rfoot -33.8454 -27.4625
rtoes 24.8315
lfemur -73.9014 0.678637 -20.0012
ltibia 37.1239
lfoot -17.1848 23.7976
ltoes 41.0793
230
root 0.502867 16.1842 -0.559375 -159.1 -12.4385 183.23
lowerback 4.35325 5.54733 4.68184
upperback -2.11765 7.67026 0.933517
thorax -4.14073 3.65676 -2.19755
lowerneck -11.0141 0.694211 -2.24724
upperneck 44.098 -6.27744 3.53211
head 18.8032 -4.04427 0.411711
rclavicle 8.62725e-014 -1.51076e-014
rhumerus -97.6561 -47.8964 75.8326
rradius 14.1883
rwrist 45.227
rhand 15.4931 4.47364
rfingers 7.12502
rthumb 40.3156 -20.6564
lclavicle 8.62725e-014 -1.51076e-014
lhumerus -49.6442 11.4992 -7.84602
lradius 15.6935
lwrist -54.2534
lhand 19.7424 30.0248
lfingers 7.12502
lthumb 44.2951 53.7968
rfemur -18.3594 12.021 33.9361
rtibia 29.8501
rfoot -33.1243 -28.1661
rtoes 22.2817
lfemur -73.8321 0.871328 -20.7104
ltibia 36.7064
lfoot -20.4321 22.1766
ltoes 45.0478
231
root 0.471637 16.1518 -0.68432 -159.256 -11.8799 183.377
lowerback 4.04144 5.5299 4.61888
upperback -2.01775 7.62025 1.02264
thorax -3.88402 3.64314 -2.02921
lowerneck -11.2995 0.911444 -2.27608
upperneck 44.4848 -6.19694 3.73879
head 19.1471 -4.01534 0.510046
rclavicle -1.59028e-015 -3.97569e-014
rhumerus -94.279 -48.388 72.332
rradius 13.8113
rwrist 48.7486
rhand 20.5348 3.62979
rfingers 7.12502
rthumb 45.033 -19.8568
lclavicle -1.59028e-015 -3.97569e-014
lhumerus -49.4547 10.9849 -7.95616
lradius 15.6229
lwrist -55.6281
lhand 21.375 30.3445
lfingers 7.12502
lthumb 45.8138 53.5162
rfemur -17.6518 11.7566 34.1413
rtibia 29.9468
rfoot -33.1135 -27.6209
rtoes 22.6498
lfemur -73.8707 1.09166 -21.1982
ltibia 36.4999
lfoot -22.7722 20.9909
ltoes 47.1977
232
root 0.441309 16.1307 -0.813526 -159.205 -11.1915 183.403
lowerback 3.42014 5.53415 4.28062
upperback -1.91715 7.56735 1.17196
thorax -3.49556 3.63853 -1.61871
lowerneck -11.3549 1.09345 -2.27393
upperneck 44.6369 -5.95846 3.66239
head 19.2436 -3.94925 0.508463
rclavicle 7.95139e-015 -4.69132e-014
rhumerus -89.8921 -48.9748 67.7686
rradius 13.4262
rwrist 51.6603
rhand 25.3548 2.16512
rfingers 7.12502
rthumb 49.4867 -19.323
lclavicle 7.95139e-015 -4.69132e-014
lhumerus -49.3158 10.0627 -7.60011
lradius 15.6106
lwrist -56.2316
lhand 22.5514 31.0946
lfingers 7.12502
lthumb 46.9041 53.8029
rfemur -17.1416 11.6539 34.1198
rtibia 30.0954
rfoot -33.3821 -26.8522
rtoes 22.971
lfemur -73.9633 1.41392 -21.8286
ltibia 36.298
lfoot -23.4726 21.6476
ltoes 47.3263
233
root 0.408464 16.1218 -0.940318 -159.219 -10.4633 183.532
lowerback 2.85366 5.58488 4.1015
upperback -1.75486 7.58704 1.31283
thorax -3.04955 3.66579 -1.30839
lowerneck -11.5833 1.22395 -2.37467
upperneck 44.8451 -5.82655 3.69238
head 19.4455 -3.92351 0.553602
rclavicle 3.33958e-014 -3.4191e-014
rhumerus -86.1361 -49.5538 64.047
rradius 13.0873
rwrist 55.0217
rhand 29.6266 -0.26857
rfingers 7.12502
rthumb 53.371 -19.5232
lclavicle 3.33958e-014 -3.4191e-014
lhumerus -48.9095 9.28042 -7.23526
lradius 15.5606
lwrist -56.9548
lhand 23.9089 31.6097
lfingers 7.12502
lthumb 48.1575 53.7487
rfemur -16.6089 11.5616 34.1595
rtibia 30.1584
rfoot -32.9703 -26.5206
rtoes 21.7563
lfemur -74.0678 1.81934 -22.3735
ltibia 36.3288
lfoot -22.1389 24.0776
ltoes 45.6843
234
root 0.377093 16.1196 -1.06025 -159.27 -9.85343 183.66
lowerback 2.59642 5.58704 4.11257
upperback -1.76445 7.57439 1.30151
thorax -2.91279 3.66201 -1.29782
lowerneck -11.8312 1.43832 -2.38548
upperneck 45.3128 -5.81415 3.89288
head 19.8527 -3.93282 0.63354
rclavicle 1.15295e-014 -1.59028e-015
rhumerus -81.1694 -49.5908 58.7385
rradius 12.8004
rwrist 57.6396
rhand 33.5414 -2.32601
rfingers 7.12502
rthumb 56.8595 -19.0284
lclavicle 1.15295e-014 -1.59028e-015
lhumerus -48.2453 8.7596 -7.561
lradius 15.3778
lwrist -58.5249
lhand 24.8869 31.7646
lfingers 7.12502
lthumb 49.0573 53.4686
rfemur -16.0975 11.565 34.1852
rtibia 30.2227
rfoot -32.5673 -26.2572
rtoes 20.2432
lfemur -74.0778 2.12799 -22.8647
ltibia 36.4334
lfoot -19.2835 27.121
ltoes 42.2199
235
root 0.342711 16.1212 -1.18572 -159.332 -9.42408 183.579
lowerback 2.37371 5.5012 4.04686
upperback -1.81972 7.44729 1.22794
thorax -2.84953 3.60168 -1.31227
lowerneck -11.9589 1.73689 -2.19381
upperneck 45.8715 -5.79276 4.05808
head 20.293 -3.92451 0.659933
rclavicle 2.14687e-014 1.19271e-014
rhumerus -78.9101 -49.9085 57.0461
rradius 12.5337
rwrist 62.6537
rhand 36.6057 -3.32584
rfingers 7.12502
rthumb 59.5269 -17.5934
lclavicle 2.14687e-014 1.19271e-014
lhumerus -47.5457 8.89941 -8.40027
lradius 15.0101
lwrist -60.6675
lhand 24.608 32.1993
lfingers 7.12502
lthumb 48.801 54.0296
rfemur -15.597 11.5322 33.9798
rtibia 30.3491
rfoot -32.4499 -25.674
rtoes 19.5509
lfemur -73.8699 2.18146 -23.4996
ltibia 36.5275
lfoot -17.9987 28.7833
ltoes 40.4637
